<?xml version="1.0" encoding="UTF-8" standalone="no" ?>
<!DOCTYPE svg PUBLIC "-//W3C//DTD SVG 1.1//EN" "http://www.w3.org/Graphics/SVG/1.1/DTD/svg11.dtd">
<svg xmlns="http://www.w3.org/2000/svg" xmlns:xlink="http://www.w3.org/1999/xlink" version="1.1" width="1080" height="1080" viewBox="0 0 1080 1080" xml:space="preserve">
<desc>Created with Fabric.js 5.2.4</desc>
<defs>
</defs>
<g transform="matrix(1 0 0 1 540 540)" id="97df2707-ad92-4db7-b73f-15076b71e28f"  >
<rect style="stroke: none; stroke-width: 1; stroke-dasharray: none; stroke-linecap: butt; stroke-dashoffset: 0; stroke-linejoin: miter; stroke-miterlimit: 4; fill: rgb(255,255,255); fill-rule: nonzero; opacity: 1; visibility: hidden;" vector-effect="non-scaling-stroke"  x="-540" y="-540" rx="0" ry="0" width="1080" height="1080" />
</g>
<g transform="matrix(1 0 0 1 540 540)" id="3d95f9e3-175e-441d-a6db-e41e3a089970"  >
</g>
<g transform="matrix(16.36 0 0 16.36 540 540)" clip-path="url(#CLIPPATH_4)"  >
<radialGradient id="SVGID_paint0_radial_1_137_3" gradientUnits="userSpaceOnUse" gradientTransform="matrix(-33.7 0 0 -33.7 33.36 32.8)"  cx="0" cy="0" r="1" fx="0" fy="0">
<stop offset="0%" style="stop-color:rgb(137,231,255);stop-opacity: 1"/>
<stop offset="100%" style="stop-color:rgb(0,204,255);stop-opacity: 1"/>
</radialGradient>
<clipPath id="CLIPPATH_4" >
	<rect transform="matrix(-1 0 0 1 0 0)" id="clip0_1_137" x="-33" y="-33" rx="0" ry="0" width="66" height="66" />
</clipPath>
<path style="stroke: none; stroke-width: 1; stroke-dasharray: none; stroke-linecap: butt; stroke-dashoffset: 0; stroke-linejoin: miter; stroke-miterlimit: 4; fill: url(#SVGID_paint0_radial_1_137_3); fill-rule: nonzero; opacity: 1;"  transform=" translate(-33, -33)" d="M 28.019 38.9105 C 29.1732 39.9021 30.5211 40.456 32.0627 40.5722 L 32.0356 66 C 29.9634 65.9961 27.9183 65.7831 25.8965 65.3686 L 25.9042 65.3686 C 22.8831 64.7218 20.0169 63.6605 17.3095 62.1848 L 17.3095 62.1771 C 14.6486 60.7246 12.2433 58.9313 10.1014 56.7894 L 28.0151 38.9105 L 28.019 38.9105 Z M 4.78346 50.3831 C 3.1722 47.8461 1.96375 45.1193 1.15424 42.2028 C 0.375717 39.4102 -0.00773621 36.5595 -0.00386047 33.6507 L 25.1451 33.6778 C 25.269 35.1806 25.8384 36.5207 26.8493 37.6943 L 8.92009 55.5926 C 7.36692 54.0007 5.98804 52.2655 4.78346 50.3831 Z M 50.9176 60.8331 C 48.1715 62.6225 45.2046 63.9588 42.0208 64.8419 C 39.3018 65.5972 36.5363 65.9806 33.7204 66 L 33.7475 40.5722 C 35.2232 40.425 36.5556 39.8672 37.7486 38.8912 L 55.7475 56.9405 C 54.2718 58.4045 52.6644 59.7021 50.9176 60.8331 Z M 65.113 40.7658 C 64.4817 43.6824 63.4204 46.4479 61.9292 49.0662 C 60.5465 51.4908 58.8771 53.7141 56.9327 55.7359 L 38.9609 37.7137 C 39.9021 36.5479 40.4521 35.2077 40.6148 33.6972 L 66 33.7243 C 65.9225 36.0947 65.6243 38.4419 65.113 40.7736 L 65.113 40.7658 Z M 38.9493 33.3873 L 38.9493 33.395 C 38.8215 34.832 38.256 36.0676 37.2528 37.1095 C 37.1018 37.2373 36.9468 37.3729 36.788 37.5046 C 35.6687 38.4496 34.3866 38.9222 32.9458 38.9222 C 32.8373 38.9183 32.725 38.9144 32.6011 38.9144 L 32.5933 38.9144 C 31.0247 38.8873 29.7 38.3024 28.6271 37.1598 C 28.4993 37.0126 28.3676 36.8655 28.2398 36.7222 C 28.2359 36.7222 28.232 36.7222 28.232 36.7144 C 27.2521 35.6299 26.7835 34.3517 26.8222 32.8915 L 26.8222 32.8644 C 26.8377 32.6862 26.8532 32.5081 26.8648 32.3338 L 26.8648 32.326 C 26.9849 30.8736 27.5465 29.6341 28.5535 28.6038 L 28.569 28.5884 C 28.7085 28.4644 28.8518 28.3443 28.9912 28.2243 C 30.1299 27.2792 31.4391 26.7873 32.9264 26.7563 C 33.1123 26.7718 33.2982 26.7873 33.4842 26.7989 C 34.8979 27.0391 36.1412 27.62 37.2141 28.538 C 37.338 28.6852 37.4542 28.8324 37.5704 28.9873 L 37.5782 29.0028 C 38.469 30.1454 38.9454 31.4313 39.0151 32.8605 C 38.9997 33.0348 38.9803 33.213 38.957 33.3912 L 38.9493 33.3873 Z M 39.7472 0.658418 C 43.0123 1.27039 46.0683 2.40525 48.9151 4.05912 C 51.3398 5.45349 53.5824 7.09187 55.643 8.97426 L 37.7525 26.8028 C 36.575 25.9429 35.2465 25.3852 33.7669 25.1295 L 33.8018 -0.00390625 C 35.7926 0.0580656 37.7757 0.27884 39.7433 0.654545 L 39.7472 0.658418 Z M 60.5194 14.7996 L 60.5194 14.8074 C 62.3785 17.5302 63.7574 20.4894 64.6637 23.681 L 64.6637 23.6887 C 65.4345 26.4116 65.8799 29.1926 65.9961 32.0278 L 40.6264 32.0007 C 40.4289 30.5443 39.8673 29.2081 38.9377 27.9996 L 56.8398 10.1633 C 58.1838 11.6158 59.4116 13.1612 60.5194 14.7996 Z M 3.96621 17.0964 C 5.39544 14.5866 7.11128 12.2859 9.11762 10.1982 L 26.8454 27.9764 C 25.912 29.1306 25.362 30.4669 25.1993 31.9852 L 0.0155106 31.9581 C 0.0736084 30.006 0.278885 28.0655 0.639099 26.1405 C 1.23945 22.945 2.35107 19.9278 3.96621 17.0887 L 3.96621 17.0964 Z M 23.8979 1.26652 L 23.9056 1.26652 C 26.5975 0.518981 29.3321 0.096798 32.113 -0.0000330103 L 32.0782 25.1141 C 30.587 25.2845 29.243 25.8422 28.05 26.795 L 10.3222 9.01687 C 12.0225 7.45983 13.8507 6.05771 15.8106 4.82215 C 18.3359 3.23025 21.0317 2.04504 23.8979 1.26652 Z" stroke-linecap="round" />
</g>
</svg>