<svg xmlns="http://www.w3.org/2000/svg" width="56.466" height="78.603" viewBox="0 0 56.466 78.603">
  <g id="Artwork_7" data-name="Artwork 7" transform="translate(-20.099 10.407)">
    <g id="lens-logo-vertical" transform="translate(20.099 -10.407)">
      <path id="Path_90695" data-name="Path 90695" d="M126.054,708.857h21.272l-4.9-21.028Z" transform="translate(-100.614 -653.293)" fill="#3d90ce"/>
      <path id="Path_90696" data-name="Path 90696" d="M51.773,714.015v12.008H74.129l9.347-12.008Z" transform="translate(-51.773 -670.458)" fill="#3d90ce"/>
      <path id="Path_90697" data-name="Path 90697" d="M140.534,603.1l24.843,12.163V591.073Z" transform="translate(-110.135 -589.867)" fill="#3d90ce"/>
      <path id="Path_90698" data-name="Path 90698" d="M180.084,683.548h6.035V656.092l-14.039-6.873Z" transform="translate(-130.877 -627.983)" fill="#3d90ce"/>
      <path id="Path_90699" data-name="Path 90699" d="M137.425,587.573h-30.94l-3.733,16.783Z" transform="translate(-85.293 -587.573)" fill="#3d90ce"/>
      <path id="Path_90700" data-name="Path 90700" d="M51.773,639.333v23.284H70.185Z" transform="translate(-51.773 -621.503)" fill="#3d90ce"/>
      <path id="Path_90701" data-name="Path 90701" d="M70.477,587.573h-18.7v13.906l12.185,15.409Z" transform="translate(-51.773 -587.573)" fill="#3d90ce"/>
      <path id="Path_90702" data-name="Path 90702" d="M51.876,787.363V772.826H54.6v12.15h7.715v2.388Z" transform="translate(-51.841 -709.01)" fill="#001021"/>
      <path id="Path_90703" data-name="Path 90703" d="M93.946,787.363V772.826h10.347v2.347H96.67v3.51h4.7v2.347h-4.7v3.987h8.123v2.347Z" transform="translate(-79.502 -709.01)" fill="#001021"/>
      <path id="Path_90704" data-name="Path 90704" d="M149.537,787.361h-2.473l-6.58-9.18a8.911,8.911,0,0,1-.658-1.08,7.98,7.98,0,0,1,.068,1.08v9.18h-2.7V772.824h2.632l6.422,9.034a11.413,11.413,0,0,1,.658,1.1,9.155,9.155,0,0,1-.068-1.1v-9.035h2.7Z" transform="translate(-107.939 -709.008)" fill="#001021"/>
      <path id="Path_90705" data-name="Path 90705" d="M188.851,787.135a6.037,6.037,0,0,1-5.99-3.759l2.519-.852a3.892,3.892,0,0,0,3.562,2.243,3.387,3.387,0,0,0,1.986-.52,1.757,1.757,0,0,0,.068-2.8,9.042,9.042,0,0,0-2.734-1.163,10.028,10.028,0,0,1-3.8-1.786,3.518,3.518,0,0,1,.4-5.275c1.588-1.38,5.339-1.512,7.124-.259a4.209,4.209,0,0,1,1.77,2.253l-2.45.747a2.822,2.822,0,0,0-2.814-1.495,2.956,2.956,0,0,0-1.668.4,1.256,1.256,0,0,0-.137,2.046,6.624,6.624,0,0,0,2.575,1.1c1.693.574,3.491,1.084,4.561,2.586a4.149,4.149,0,0,1,.613,2.15C194.442,785.751,191.69,787.152,188.851,787.135Z" transform="translate(-137.965 -708.533)" fill="#001021"/>
    </g>
  </g>
</svg>
