<svg xmlns="http://www.w3.org/2000/svg" viewBox="0 5.192379951477051 215.14401245117188 64.94432067871094" fill="none" preserveAspectRatio="xMidYMid meet" role="img">
    <path d="M96.3887 22.5068C96.3887 22.0674 96.3203 21.6768 96.1836 21.335C96.0566 20.9932 95.8271 20.6807 95.4951 20.3975C95.1631 20.1143 94.6943 19.8408 94.0889 19.5771C93.4932 19.3037 92.7314 19.0254 91.8037 18.7422C90.7881 18.4297 89.8506 18.083 88.9912 17.7021C88.1416 17.3115 87.3994 16.8623 86.7646 16.3545C86.1299 15.8369 85.6367 15.2461 85.2852 14.582C84.9336 13.9082 84.7578 13.1318 84.7578 12.2529C84.7578 11.3838 84.9385 10.5928 85.2998 9.87988C85.6709 9.16699 86.1934 8.55176 86.8672 8.03418C87.5508 7.50684 88.3564 7.10156 89.2842 6.81836C90.2119 6.52539 91.2373 6.37891 92.3604 6.37891C93.9424 6.37891 95.3047 6.67188 96.4473 7.25781C97.5996 7.84375 98.4834 8.62988 99.0986 9.61621C99.7236 10.6025 100.036 11.6914 100.036 12.8828H96.3887C96.3887 12.1797 96.2373 11.5596 95.9346 11.0225C95.6416 10.4756 95.1924 10.0459 94.5869 9.7334C93.9912 9.4209 93.2344 9.26465 92.3164 9.26465C91.4473 9.26465 90.7246 9.39648 90.1484 9.66016C89.5723 9.92383 89.1426 10.2803 88.8594 10.7295C88.5762 11.1787 88.4346 11.6865 88.4346 12.2529C88.4346 12.6533 88.5273 13.0195 88.7129 13.3516C88.8984 13.6738 89.1816 13.9766 89.5625 14.2598C89.9434 14.5332 90.4219 14.792 90.998 15.0361C91.5742 15.2803 92.2529 15.5146 93.0342 15.7393C94.2158 16.0908 95.2461 16.4814 96.125 16.9111C97.0039 17.3311 97.7363 17.8096 98.3223 18.3467C98.9082 18.8838 99.3477 19.4941 99.6406 20.1777C99.9336 20.8516 100.08 21.6182 100.08 22.4775C100.08 23.376 99.8994 24.1865 99.5381 24.9092C99.1768 25.6221 98.6592 26.2324 97.9854 26.7402C97.3213 27.2383 96.5205 27.624 95.583 27.8975C94.6553 28.1611 93.6201 28.293 92.4775 28.293C91.4521 28.293 90.4414 28.1562 89.4453 27.8828C88.459 27.6094 87.5605 27.1943 86.75 26.6377C85.9395 26.0713 85.2949 25.3682 84.8164 24.5283C84.3379 23.6787 84.0986 22.6875 84.0986 21.5547H87.7754C87.7754 22.248 87.8926 22.8389 88.127 23.3271C88.3711 23.8154 88.708 24.2158 89.1377 24.5283C89.5674 24.8311 90.0654 25.0557 90.6318 25.2021C91.208 25.3486 91.8232 25.4219 92.4775 25.4219C93.3369 25.4219 94.0547 25.2998 94.6309 25.0557C95.2168 24.8115 95.6562 24.4697 95.9492 24.0303C96.2422 23.5908 96.3887 23.083 96.3887 22.5068ZM110.246 12.1504V14.7285H101.311V12.1504H110.246ZM103.889 8.26855H107.419V23.6201C107.419 24.1084 107.487 24.4844 107.624 24.748C107.771 25.002 107.971 25.1729 108.225 25.2607C108.479 25.3486 108.776 25.3926 109.118 25.3926C109.362 25.3926 109.597 25.3779 109.821 25.3486C110.046 25.3193 110.227 25.29 110.363 25.2607L110.378 27.9561C110.085 28.0439 109.743 28.1221 109.353 28.1904C108.972 28.2588 108.532 28.293 108.034 28.293C107.224 28.293 106.506 28.1514 105.881 27.8682C105.256 27.5752 104.768 27.1016 104.416 26.4473C104.064 25.793 103.889 24.9238 103.889 23.8398V8.26855ZM121.906 24.8213V17.2627C121.906 16.6963 121.804 16.208 121.599 15.7979C121.394 15.3877 121.081 15.0703 120.661 14.8457C120.251 14.6211 119.733 14.5088 119.108 14.5088C118.532 14.5088 118.034 14.6064 117.614 14.8018C117.194 14.9971 116.867 15.2607 116.633 15.5928C116.398 15.9248 116.281 16.3008 116.281 16.7207H112.766C112.766 16.0957 112.917 15.4902 113.22 14.9043C113.522 14.3184 113.962 13.7959 114.538 13.3369C115.114 12.8779 115.803 12.5166 116.604 12.2529C117.404 11.9893 118.303 11.8574 119.299 11.8574C120.49 11.8574 121.545 12.0576 122.463 12.458C123.391 12.8584 124.118 13.4639 124.646 14.2744C125.183 15.0752 125.451 16.0811 125.451 17.292V24.3379C125.451 25.0605 125.5 25.71 125.598 26.2861C125.705 26.8525 125.856 27.3457 126.052 27.7656V28H122.434C122.268 27.6191 122.136 27.1357 122.038 26.5498C121.95 25.9541 121.906 25.3779 121.906 24.8213ZM122.419 18.3613L122.448 20.5439H119.914C119.26 20.5439 118.684 20.6074 118.186 20.7344C117.688 20.8516 117.272 21.0273 116.94 21.2617C116.608 21.4961 116.359 21.7793 116.193 22.1113C116.027 22.4434 115.944 22.8193 115.944 23.2393C115.944 23.6592 116.042 24.0449 116.237 24.3965C116.433 24.7383 116.716 25.0068 117.087 25.2021C117.468 25.3975 117.927 25.4951 118.464 25.4951C119.187 25.4951 119.816 25.3486 120.354 25.0557C120.9 24.7529 121.33 24.3867 121.643 23.957C121.955 23.5176 122.121 23.1025 122.141 22.7119L123.283 24.2793C123.166 24.6797 122.966 25.1094 122.683 25.5684C122.399 26.0273 122.028 26.4668 121.569 26.8867C121.12 27.2969 120.578 27.6338 119.943 27.8975C119.318 28.1611 118.596 28.293 117.775 28.293C116.74 28.293 115.817 28.0879 115.007 27.6777C114.196 27.2578 113.562 26.6963 113.103 25.9932C112.644 25.2803 112.414 24.4746 112.414 23.5762C112.414 22.7363 112.57 21.9941 112.883 21.3496C113.205 20.6953 113.674 20.1484 114.289 19.709C114.914 19.2695 115.676 18.9375 116.574 18.7129C117.473 18.4785 118.498 18.3613 119.65 18.3613H122.419ZM136.408 12.1504V14.7285H127.473V12.1504H136.408ZM130.051 8.26855H133.581V23.6201C133.581 24.1084 133.649 24.4844 133.786 24.748C133.933 25.002 134.133 25.1729 134.387 25.2607C134.641 25.3486 134.938 25.3926 135.28 25.3926C135.524 25.3926 135.759 25.3779 135.983 25.3486C136.208 25.3193 136.389 25.29 136.525 25.2607L136.54 27.9561C136.247 28.0439 135.905 28.1221 135.515 28.1904C135.134 28.2588 134.694 28.293 134.196 28.293C133.386 28.293 132.668 28.1514 132.043 27.8682C131.418 27.5752 130.93 27.1016 130.578 26.4473C130.227 25.793 130.051 24.9238 130.051 23.8398V8.26855ZM146.12 28.293C144.948 28.293 143.889 28.1025 142.941 27.7217C142.004 27.3311 141.203 26.7891 140.539 26.0957C139.885 25.4023 139.382 24.5869 139.03 23.6494C138.679 22.7119 138.503 21.7012 138.503 20.6172V20.0312C138.503 18.791 138.684 17.668 139.045 16.6621C139.406 15.6562 139.909 14.7969 140.554 14.084C141.198 13.3613 141.96 12.8096 142.839 12.4287C143.718 12.0479 144.67 11.8574 145.695 11.8574C146.828 11.8574 147.819 12.0479 148.669 12.4287C149.519 12.8096 150.222 13.3467 150.778 14.04C151.345 14.7236 151.765 15.5391 152.038 16.4863C152.321 17.4336 152.463 18.4785 152.463 19.6211V21.1299H140.217V18.5957H148.977V18.3174C148.957 17.6826 148.83 17.0869 148.596 16.5303C148.371 15.9736 148.024 15.5244 147.556 15.1826C147.087 14.8408 146.462 14.6699 145.681 14.6699C145.095 14.6699 144.572 14.7969 144.113 15.0508C143.664 15.2949 143.288 15.6514 142.985 16.1201C142.683 16.5889 142.448 17.1553 142.282 17.8193C142.126 18.4736 142.048 19.2109 142.048 20.0312V20.6172C142.048 21.3105 142.141 21.9551 142.326 22.5508C142.521 23.1367 142.805 23.6494 143.176 24.0889C143.547 24.5283 143.996 24.875 144.523 25.1289C145.051 25.373 145.651 25.4951 146.325 25.4951C147.175 25.4951 147.932 25.3242 148.596 24.9824C149.26 24.6406 149.836 24.1572 150.324 23.5322L152.185 25.334C151.843 25.832 151.398 26.3105 150.852 26.7695C150.305 27.2188 149.636 27.585 148.845 27.8682C148.063 28.1514 147.155 28.293 146.12 28.293ZM161.691 25.4805C162.268 25.4805 162.785 25.3682 163.244 25.1436C163.713 24.9092 164.089 24.5869 164.372 24.1768C164.665 23.7666 164.826 23.293 164.855 22.7559H168.181C168.161 23.7812 167.858 24.7139 167.272 25.5537C166.687 26.3936 165.91 27.0625 164.943 27.5605C163.977 28.0488 162.907 28.293 161.735 28.293C160.524 28.293 159.47 28.0879 158.571 27.6777C157.673 27.2578 156.926 26.6816 156.33 25.9492C155.734 25.2168 155.285 24.3721 154.982 23.415C154.689 22.458 154.543 21.4326 154.543 20.3389V19.8262C154.543 18.7324 154.689 17.707 154.982 16.75C155.285 15.7832 155.734 14.9336 156.33 14.2012C156.926 13.4688 157.673 12.8975 158.571 12.4873C159.47 12.0674 160.52 11.8574 161.721 11.8574C162.99 11.8574 164.104 12.1113 165.061 12.6191C166.018 13.1172 166.77 13.8154 167.316 14.7139C167.873 15.6025 168.161 16.6377 168.181 17.8193H164.855C164.826 17.2334 164.68 16.7061 164.416 16.2373C164.162 15.7588 163.801 15.3779 163.332 15.0947C162.873 14.8115 162.321 14.6699 161.677 14.6699C160.964 14.6699 160.373 14.8164 159.904 15.1094C159.436 15.3926 159.069 15.7832 158.806 16.2812C158.542 16.7695 158.352 17.3213 158.234 17.9365C158.127 18.542 158.073 19.1719 158.073 19.8262V20.3389C158.073 20.9932 158.127 21.6279 158.234 22.2432C158.342 22.8584 158.527 23.4102 158.791 23.8984C159.064 24.377 159.436 24.7627 159.904 25.0557C160.373 25.3389 160.969 25.4805 161.691 25.4805ZM174.436 15.168V28H170.905V12.1504H174.274L174.436 15.168ZM179.284 12.0479L179.255 15.3291C179.04 15.29 178.806 15.2607 178.552 15.2412C178.308 15.2217 178.063 15.2119 177.819 15.2119C177.214 15.2119 176.682 15.2998 176.223 15.4756C175.764 15.6416 175.378 15.8857 175.065 16.208C174.763 16.5205 174.528 16.9014 174.362 17.3506C174.196 17.7998 174.099 18.3027 174.069 18.8594L173.264 18.918C173.264 17.9219 173.361 16.999 173.557 16.1494C173.752 15.2998 174.045 14.5527 174.436 13.9082C174.836 13.2637 175.334 12.7607 175.93 12.3994C176.535 12.0381 177.233 11.8574 178.024 11.8574C178.239 11.8574 178.469 11.877 178.713 11.916C178.967 11.9551 179.157 11.999 179.284 12.0479ZM189.904 24.8213V17.2627C189.904 16.6963 189.802 16.208 189.597 15.7979C189.392 15.3877 189.079 15.0703 188.659 14.8457C188.249 14.6211 187.731 14.5088 187.106 14.5088C186.53 14.5088 186.032 14.6064 185.612 14.8018C185.192 14.9971 184.865 15.2607 184.631 15.5928C184.396 15.9248 184.279 16.3008 184.279 16.7207H180.764C180.764 16.0957 180.915 15.4902 181.218 14.9043C181.521 14.3184 181.96 13.7959 182.536 13.3369C183.112 12.8779 183.801 12.5166 184.602 12.2529C185.402 11.9893 186.301 11.8574 187.297 11.8574C188.488 11.8574 189.543 12.0576 190.461 12.458C191.389 12.8584 192.116 13.4639 192.644 14.2744C193.181 15.0752 193.449 16.0811 193.449 17.292V24.3379C193.449 25.0605 193.498 25.71 193.596 26.2861C193.703 26.8525 193.854 27.3457 194.05 27.7656V28H190.432C190.266 27.6191 190.134 27.1357 190.036 26.5498C189.948 25.9541 189.904 25.3779 189.904 24.8213ZM190.417 18.3613L190.446 20.5439H187.912C187.258 20.5439 186.682 20.6074 186.184 20.7344C185.686 20.8516 185.271 21.0273 184.938 21.2617C184.606 21.4961 184.357 21.7793 184.191 22.1113C184.025 22.4434 183.942 22.8193 183.942 23.2393C183.942 23.6592 184.04 24.0449 184.235 24.3965C184.431 24.7383 184.714 25.0068 185.085 25.2021C185.466 25.3975 185.925 25.4951 186.462 25.4951C187.185 25.4951 187.814 25.3486 188.352 25.0557C188.898 24.7529 189.328 24.3867 189.641 23.957C189.953 23.5176 190.119 23.1025 190.139 22.7119L191.281 24.2793C191.164 24.6797 190.964 25.1094 190.681 25.5684C190.397 26.0273 190.026 26.4668 189.567 26.8867C189.118 27.2969 188.576 27.6338 187.941 27.8975C187.316 28.1611 186.594 28.293 185.773 28.293C184.738 28.293 183.815 28.0879 183.005 27.6777C182.194 27.2578 181.56 26.6963 181.101 25.9932C180.642 25.2803 180.412 24.4746 180.412 23.5762C180.412 22.7363 180.568 21.9941 180.881 21.3496C181.203 20.6953 181.672 20.1484 182.287 19.709C182.912 19.2695 183.674 18.9375 184.572 18.7129C185.471 18.4785 186.496 18.3613 187.648 18.3613H190.417ZM201.916 28H198.386V10.627C198.386 9.44531 198.605 8.4541 199.045 7.65332C199.494 6.84277 200.134 6.23242 200.964 5.82227C201.794 5.40234 202.775 5.19238 203.908 5.19238C204.26 5.19238 204.606 5.2168 204.948 5.26562C205.29 5.30469 205.622 5.36816 205.944 5.45605L205.856 8.18066C205.661 8.13184 205.446 8.09766 205.212 8.07812C204.987 8.05859 204.743 8.04883 204.479 8.04883C203.942 8.04883 203.479 8.15137 203.088 8.35645C202.707 8.55176 202.414 8.83984 202.209 9.2207C202.014 9.60156 201.916 10.0703 201.916 10.627V28ZM205.183 12.1504V14.7285H195.954V12.1504H205.183ZM215.012 12.1504V14.7285H206.076V12.1504H215.012ZM208.654 8.26855H212.185V23.6201C212.185 24.1084 212.253 24.4844 212.39 24.748C212.536 25.002 212.736 25.1729 212.99 25.2607C213.244 25.3486 213.542 25.3926 213.884 25.3926C214.128 25.3926 214.362 25.3779 214.587 25.3486C214.812 25.3193 214.992 25.29 215.129 25.2607L215.144 27.9561C214.851 28.0439 214.509 28.1221 214.118 28.1904C213.737 28.2588 213.298 28.293 212.8 28.293C211.989 28.293 211.271 28.1514 210.646 27.8682C210.021 27.5752 209.533 27.1016 209.182 26.4473C208.83 25.793 208.654 24.9238 208.654 23.8398V8.26855Z" fill="#131313"></path>
    <path d="M91.8115 42.0469V52H90.4854L85.4746 44.3232V52H84.1553V42.0469H85.4746L90.5059 49.7441V42.0469H91.8115ZM97.0273 52.1367C96.5124 52.1367 96.0452 52.0501 95.626 51.877C95.2113 51.6992 94.8535 51.4508 94.5527 51.1318C94.2565 50.8128 94.0286 50.4346 93.8691 49.9971C93.7096 49.5596 93.6299 49.0811 93.6299 48.5615V48.2744C93.6299 47.6729 93.7188 47.1374 93.8965 46.668C94.0742 46.194 94.3158 45.793 94.6211 45.4648C94.9264 45.1367 95.2728 44.8883 95.6602 44.7197C96.0475 44.5511 96.4486 44.4668 96.8633 44.4668C97.3919 44.4668 97.8477 44.5579 98.2305 44.7402C98.6178 44.9225 98.9346 45.1777 99.1807 45.5059C99.4268 45.8294 99.609 46.2122 99.7275 46.6543C99.846 47.0918 99.9053 47.5703 99.9053 48.0898V48.6572H94.3818V47.625H98.6406V47.5293C98.6224 47.2012 98.554 46.8822 98.4355 46.5723C98.3216 46.2624 98.1393 46.0072 97.8887 45.8066C97.638 45.6061 97.2962 45.5059 96.8633 45.5059C96.5762 45.5059 96.3118 45.5674 96.0703 45.6904C95.8288 45.8089 95.6214 45.9867 95.4482 46.2236C95.2751 46.4606 95.1406 46.75 95.0449 47.0918C94.9492 47.4336 94.9014 47.8278 94.9014 48.2744V48.5615C94.9014 48.9124 94.9492 49.2428 95.0449 49.5527C95.1452 49.8581 95.2887 50.127 95.4756 50.3594C95.667 50.5918 95.8971 50.7741 96.166 50.9062C96.4395 51.0384 96.7493 51.1045 97.0957 51.1045C97.5423 51.1045 97.9206 51.0133 98.2305 50.8311C98.5404 50.6488 98.8115 50.4049 99.0439 50.0996L99.8096 50.708C99.6501 50.9495 99.4473 51.1797 99.2012 51.3984C98.9551 51.6172 98.652 51.7949 98.292 51.9316C97.9365 52.0684 97.515 52.1367 97.0273 52.1367ZM104.479 44.6035V45.5742H100.479V44.6035H104.479ZM101.833 42.8057H103.098V50.168C103.098 50.4186 103.136 50.6077 103.214 50.7354C103.291 50.863 103.392 50.9473 103.515 50.9883C103.638 51.0293 103.77 51.0498 103.911 51.0498C104.016 51.0498 104.125 51.0407 104.239 51.0225C104.358 50.9997 104.447 50.9814 104.506 50.9678L104.513 52C104.412 52.0319 104.28 52.0615 104.116 52.0889C103.957 52.1208 103.763 52.1367 103.535 52.1367C103.225 52.1367 102.94 52.0752 102.681 51.9521C102.421 51.8291 102.214 51.624 102.059 51.3369C101.908 51.0452 101.833 50.6533 101.833 50.1611V42.8057ZM108.594 47.249V48.2881H105.258V47.249H108.594ZM114.138 50.0381C114.138 49.8558 114.097 49.6872 114.015 49.5322C113.937 49.3727 113.775 49.2292 113.529 49.1016C113.288 48.9694 112.923 48.8555 112.436 48.7598C112.025 48.6732 111.654 48.5706 111.321 48.4521C110.993 48.3337 110.713 48.1901 110.48 48.0215C110.253 47.8529 110.077 47.6546 109.954 47.4268C109.831 47.1989 109.77 46.9323 109.77 46.627C109.77 46.3353 109.833 46.0596 109.961 45.7998C110.093 45.54 110.278 45.3099 110.515 45.1094C110.756 44.9089 111.046 44.7516 111.383 44.6377C111.72 44.5238 112.096 44.4668 112.511 44.4668C113.103 44.4668 113.609 44.5716 114.028 44.7812C114.448 44.9909 114.769 45.2712 114.992 45.6221C115.215 45.9684 115.327 46.3535 115.327 46.7773H114.062C114.062 46.5723 114.001 46.374 113.878 46.1826C113.759 45.9867 113.584 45.8249 113.352 45.6973C113.124 45.5697 112.843 45.5059 112.511 45.5059C112.16 45.5059 111.875 45.5605 111.656 45.6699C111.442 45.7747 111.285 45.9092 111.185 46.0732C111.089 46.2373 111.041 46.4105 111.041 46.5928C111.041 46.7295 111.064 46.8525 111.109 46.9619C111.16 47.0667 111.246 47.1647 111.369 47.2559C111.492 47.3424 111.665 47.4245 111.889 47.502C112.112 47.5794 112.397 47.6569 112.743 47.7344C113.349 47.8711 113.848 48.0352 114.24 48.2266C114.632 48.418 114.924 48.6527 115.115 48.9307C115.307 49.2087 115.402 49.5459 115.402 49.9424C115.402 50.266 115.334 50.5622 115.197 50.8311C115.065 51.0999 114.871 51.3324 114.616 51.5283C114.366 51.7197 114.065 51.8701 113.714 51.9795C113.368 52.0843 112.978 52.1367 112.545 52.1367C111.893 52.1367 111.342 52.0205 110.891 51.7881C110.439 51.5557 110.098 51.2549 109.865 50.8857C109.633 50.5166 109.517 50.127 109.517 49.7168H110.788C110.806 50.0632 110.907 50.3389 111.089 50.5439C111.271 50.7445 111.494 50.888 111.759 50.9746C112.023 51.0566 112.285 51.0977 112.545 51.0977C112.891 51.0977 113.181 51.0521 113.413 50.9609C113.65 50.8698 113.83 50.7445 113.953 50.585C114.076 50.4255 114.138 50.2432 114.138 50.0381ZM120.16 44.6035V45.5742H116.161V44.6035H120.16ZM117.515 42.8057H118.779V50.168C118.779 50.4186 118.818 50.6077 118.896 50.7354C118.973 50.863 119.073 50.9473 119.196 50.9883C119.319 51.0293 119.451 51.0498 119.593 51.0498C119.698 51.0498 119.807 51.0407 119.921 51.0225C120.039 50.9997 120.128 50.9814 120.188 50.9678L120.194 52C120.094 52.0319 119.962 52.0615 119.798 52.0889C119.638 52.1208 119.445 52.1367 119.217 52.1367C118.907 52.1367 118.622 52.0752 118.362 51.9521C118.103 51.8291 117.895 51.624 117.74 51.3369C117.59 51.0452 117.515 50.6533 117.515 50.1611V42.8057ZM126.005 50.7354V46.9277C126.005 46.6361 125.946 46.3831 125.827 46.1689C125.713 45.9502 125.54 45.7816 125.308 45.6631C125.075 45.5446 124.788 45.4854 124.446 45.4854C124.127 45.4854 123.847 45.54 123.605 45.6494C123.368 45.7588 123.182 45.9023 123.045 46.0801C122.913 46.2578 122.847 46.4492 122.847 46.6543H121.582C121.582 46.39 121.65 46.1279 121.787 45.8682C121.924 45.6084 122.12 45.3737 122.375 45.1641C122.635 44.9499 122.945 44.7812 123.305 44.6582C123.669 44.5306 124.075 44.4668 124.521 44.4668C125.059 44.4668 125.533 44.5579 125.943 44.7402C126.358 44.9225 126.682 45.1982 126.914 45.5674C127.151 45.932 127.27 46.39 127.27 46.9414V50.3867C127.27 50.6328 127.29 50.8949 127.331 51.1729C127.377 51.4508 127.443 51.6901 127.529 51.8906V52H126.21C126.146 51.8542 126.096 51.6605 126.06 51.4189C126.023 51.1729 126.005 50.945 126.005 50.7354ZM126.224 47.5156L126.237 48.4043H124.959C124.599 48.4043 124.278 48.4339 123.995 48.4932C123.713 48.5479 123.476 48.6322 123.284 48.7461C123.093 48.86 122.947 49.0036 122.847 49.1768C122.746 49.3454 122.696 49.5436 122.696 49.7715C122.696 50.0039 122.749 50.2158 122.854 50.4072C122.958 50.5986 123.116 50.7513 123.325 50.8652C123.539 50.9746 123.801 51.0293 124.111 51.0293C124.499 51.0293 124.84 50.9473 125.137 50.7832C125.433 50.6191 125.668 50.4186 125.841 50.1816C126.019 49.9447 126.114 49.7145 126.128 49.4912L126.668 50.0996C126.636 50.291 126.549 50.5029 126.408 50.7354C126.267 50.9678 126.078 51.1911 125.841 51.4053C125.608 51.6149 125.33 51.7904 125.007 51.9316C124.688 52.0684 124.328 52.1367 123.927 52.1367C123.425 52.1367 122.986 52.0387 122.607 51.8428C122.234 51.6468 121.942 51.3848 121.732 51.0566C121.527 50.724 121.425 50.3525 121.425 49.9424C121.425 49.5459 121.502 49.1973 121.657 48.8965C121.812 48.5911 122.035 48.3382 122.327 48.1377C122.619 47.9326 122.97 47.7777 123.38 47.6729C123.79 47.568 124.248 47.5156 124.754 47.5156H126.224ZM132.355 44.6035V45.5742H128.356V44.6035H132.355ZM129.71 42.8057H130.975V50.168C130.975 50.4186 131.013 50.6077 131.091 50.7354C131.168 50.863 131.269 50.9473 131.392 50.9883C131.515 51.0293 131.647 51.0498 131.788 51.0498C131.893 51.0498 132.002 51.0407 132.116 51.0225C132.235 50.9997 132.324 50.9814 132.383 50.9678L132.39 52C132.289 52.0319 132.157 52.0615 131.993 52.0889C131.834 52.1208 131.64 52.1367 131.412 52.1367C131.102 52.1367 130.817 52.0752 130.558 51.9521C130.298 51.8291 130.09 51.624 129.936 51.3369C129.785 51.0452 129.71 50.6533 129.71 50.1611V42.8057ZM136.908 52.1367C136.393 52.1367 135.926 52.0501 135.507 51.877C135.092 51.6992 134.734 51.4508 134.434 51.1318C134.137 50.8128 133.91 50.4346 133.75 49.9971C133.59 49.5596 133.511 49.0811 133.511 48.5615V48.2744C133.511 47.6729 133.6 47.1374 133.777 46.668C133.955 46.194 134.197 45.793 134.502 45.4648C134.807 45.1367 135.154 44.8883 135.541 44.7197C135.928 44.5511 136.329 44.4668 136.744 44.4668C137.273 44.4668 137.729 44.5579 138.111 44.7402C138.499 44.9225 138.815 45.1777 139.062 45.5059C139.308 45.8294 139.49 46.2122 139.608 46.6543C139.727 47.0918 139.786 47.5703 139.786 48.0898V48.6572H134.263V47.625H138.521V47.5293C138.503 47.2012 138.435 46.8822 138.316 46.5723C138.202 46.2624 138.02 46.0072 137.77 45.8066C137.519 45.6061 137.177 45.5059 136.744 45.5059C136.457 45.5059 136.193 45.5674 135.951 45.6904C135.71 45.8089 135.502 45.9867 135.329 46.2236C135.156 46.4606 135.021 46.75 134.926 47.0918C134.83 47.4336 134.782 47.8278 134.782 48.2744V48.5615C134.782 48.9124 134.83 49.2428 134.926 49.5527C135.026 49.8581 135.17 50.127 135.356 50.3594C135.548 50.5918 135.778 50.7741 136.047 50.9062C136.32 51.0384 136.63 51.1045 136.977 51.1045C137.423 51.1045 137.801 51.0133 138.111 50.8311C138.421 50.6488 138.692 50.4049 138.925 50.0996L139.69 50.708C139.531 50.9495 139.328 51.1797 139.082 51.3984C138.836 51.6172 138.533 51.7949 138.173 51.9316C137.817 52.0684 137.396 52.1367 136.908 52.1367ZM145.569 50.0381C145.569 49.8558 145.528 49.6872 145.446 49.5322C145.369 49.3727 145.207 49.2292 144.961 49.1016C144.719 48.9694 144.355 48.8555 143.867 48.7598C143.457 48.6732 143.086 48.5706 142.753 48.4521C142.425 48.3337 142.145 48.1901 141.912 48.0215C141.684 47.8529 141.509 47.6546 141.386 47.4268C141.263 47.1989 141.201 46.9323 141.201 46.627C141.201 46.3353 141.265 46.0596 141.393 45.7998C141.525 45.54 141.709 45.3099 141.946 45.1094C142.188 44.9089 142.477 44.7516 142.814 44.6377C143.152 44.5238 143.528 44.4668 143.942 44.4668C144.535 44.4668 145.041 44.5716 145.46 44.7812C145.879 44.9909 146.201 45.2712 146.424 45.6221C146.647 45.9684 146.759 46.3535 146.759 46.7773H145.494C145.494 46.5723 145.433 46.374 145.31 46.1826C145.191 45.9867 145.016 45.8249 144.783 45.6973C144.555 45.5697 144.275 45.5059 143.942 45.5059C143.591 45.5059 143.307 45.5605 143.088 45.6699C142.874 45.7747 142.716 45.9092 142.616 46.0732C142.521 46.2373 142.473 46.4105 142.473 46.5928C142.473 46.7295 142.495 46.8525 142.541 46.9619C142.591 47.0667 142.678 47.1647 142.801 47.2559C142.924 47.3424 143.097 47.4245 143.32 47.502C143.544 47.5794 143.828 47.6569 144.175 47.7344C144.781 47.8711 145.28 48.0352 145.672 48.2266C146.064 48.418 146.355 48.6527 146.547 48.9307C146.738 49.2087 146.834 49.5459 146.834 49.9424C146.834 50.266 146.766 50.5622 146.629 50.8311C146.497 51.0999 146.303 51.3324 146.048 51.5283C145.797 51.7197 145.496 51.8701 145.146 51.9795C144.799 52.0843 144.41 52.1367 143.977 52.1367C143.325 52.1367 142.773 52.0205 142.322 51.7881C141.871 51.5557 141.529 51.2549 141.297 50.8857C141.064 50.5166 140.948 50.127 140.948 49.7168H142.22C142.238 50.0632 142.338 50.3389 142.521 50.5439C142.703 50.7445 142.926 50.888 143.19 50.9746C143.455 51.0566 143.717 51.0977 143.977 51.0977C144.323 51.0977 144.612 51.0521 144.845 50.9609C145.082 50.8698 145.262 50.7445 145.385 50.585C145.508 50.4255 145.569 50.2432 145.569 50.0381ZM91.8184 64.709V65.3379C91.8184 66.0853 91.7249 66.7552 91.5381 67.3477C91.3512 67.9401 91.0824 68.4437 90.7314 68.8584C90.3805 69.2731 89.959 69.5898 89.4668 69.8086C88.9792 70.0273 88.4323 70.1367 87.8262 70.1367C87.2383 70.1367 86.6982 70.0273 86.2061 69.8086C85.7184 69.5898 85.2946 69.2731 84.9346 68.8584C84.5791 68.4437 84.3034 67.9401 84.1074 67.3477C83.9115 66.7552 83.8135 66.0853 83.8135 65.3379V64.709C83.8135 63.9616 83.9092 63.2939 84.1006 62.7061C84.2965 62.1136 84.5723 61.61 84.9277 61.1953C85.2832 60.776 85.7048 60.457 86.1924 60.2383C86.6846 60.0195 87.2246 59.9102 87.8125 59.9102C88.4186 59.9102 88.9655 60.0195 89.4531 60.2383C89.9453 60.457 90.3669 60.776 90.7178 61.1953C91.0732 61.61 91.3444 62.1136 91.5312 62.7061C91.7227 63.2939 91.8184 63.9616 91.8184 64.709ZM90.5127 65.3379V64.6953C90.5127 64.1029 90.4512 63.5788 90.3281 63.123C90.2096 62.6673 90.0342 62.2845 89.8018 61.9746C89.5693 61.6647 89.2845 61.43 88.9473 61.2705C88.6146 61.111 88.2363 61.0312 87.8125 61.0312C87.4023 61.0312 87.0309 61.111 86.6982 61.2705C86.3701 61.43 86.0876 61.6647 85.8506 61.9746C85.6182 62.2845 85.4382 62.6673 85.3105 63.123C85.1829 63.5788 85.1191 64.1029 85.1191 64.6953V65.3379C85.1191 65.9349 85.1829 66.4635 85.3105 66.9238C85.4382 67.3796 85.6204 67.7646 85.8574 68.0791C86.099 68.389 86.3838 68.6237 86.7119 68.7832C87.0446 68.9427 87.416 69.0225 87.8262 69.0225C88.2546 69.0225 88.6351 68.9427 88.9678 68.7832C89.3005 68.6237 89.5807 68.389 89.8086 68.0791C90.041 67.7646 90.2165 67.3796 90.335 66.9238C90.4535 66.4635 90.5127 65.9349 90.5127 65.3379ZM94.8672 64.1826V70H93.6025V62.6035H94.7988L94.8672 64.1826ZM94.5664 66.0215L94.04 66.001C94.0446 65.4951 94.1198 65.028 94.2656 64.5996C94.4115 64.1667 94.6165 63.7907 94.8809 63.4717C95.1452 63.1527 95.4596 62.9066 95.8242 62.7334C96.1934 62.5557 96.6012 62.4668 97.0479 62.4668C97.4124 62.4668 97.7406 62.5169 98.0322 62.6172C98.3239 62.7129 98.5723 62.8678 98.7773 63.082C98.987 63.2962 99.1465 63.5742 99.2559 63.916C99.3652 64.2533 99.4199 64.6657 99.4199 65.1533V70H98.1484V65.1396C98.1484 64.7523 98.0915 64.4424 97.9775 64.21C97.8636 63.973 97.6973 63.8021 97.4785 63.6973C97.2598 63.5879 96.9909 63.5332 96.6719 63.5332C96.3574 63.5332 96.0703 63.5993 95.8105 63.7314C95.5553 63.8636 95.3343 64.0459 95.1475 64.2783C94.9652 64.5107 94.8216 64.7773 94.7168 65.0781C94.6165 65.3743 94.5664 65.6888 94.5664 66.0215ZM102.715 59.5V70H101.443V59.5H102.715ZM106.119 62.6035V70H104.848V62.6035H106.119ZM104.752 60.6416C104.752 60.4365 104.813 60.2633 104.937 60.1221C105.064 59.9808 105.251 59.9102 105.497 59.9102C105.739 59.9102 105.923 59.9808 106.051 60.1221C106.183 60.2633 106.249 60.4365 106.249 60.6416C106.249 60.8376 106.183 61.0062 106.051 61.1475C105.923 61.2842 105.739 61.3525 105.497 61.3525C105.251 61.3525 105.064 61.2842 104.937 61.1475C104.813 61.0062 104.752 60.8376 104.752 60.6416ZM109.414 64.1826V70H108.149V62.6035H109.346L109.414 64.1826ZM109.113 66.0215L108.587 66.001C108.591 65.4951 108.667 65.028 108.812 64.5996C108.958 64.1667 109.163 63.7907 109.428 63.4717C109.692 63.1527 110.007 62.9066 110.371 62.7334C110.74 62.5557 111.148 62.4668 111.595 62.4668C111.959 62.4668 112.287 62.5169 112.579 62.6172C112.871 62.7129 113.119 62.8678 113.324 63.082C113.534 63.2962 113.693 63.5742 113.803 63.916C113.912 64.2533 113.967 64.6657 113.967 65.1533V70H112.695V65.1396C112.695 64.7523 112.638 64.4424 112.524 64.21C112.41 63.973 112.244 63.8021 112.025 63.6973C111.807 63.5879 111.538 63.5332 111.219 63.5332C110.904 63.5332 110.617 63.5993 110.357 63.7314C110.102 63.8636 109.881 64.0459 109.694 64.2783C109.512 64.5107 109.368 64.7773 109.264 65.0781C109.163 65.3743 109.113 65.6888 109.113 66.0215ZM118.957 70.1367C118.442 70.1367 117.975 70.0501 117.556 69.877C117.141 69.6992 116.783 69.4508 116.482 69.1318C116.186 68.8128 115.958 68.4346 115.799 67.9971C115.639 67.5596 115.56 67.0811 115.56 66.5615V66.2744C115.56 65.6729 115.648 65.1374 115.826 64.668C116.004 64.194 116.245 63.793 116.551 63.4648C116.856 63.1367 117.202 62.8883 117.59 62.7197C117.977 62.5511 118.378 62.4668 118.793 62.4668C119.322 62.4668 119.777 62.5579 120.16 62.7402C120.548 62.9225 120.864 63.1777 121.11 63.5059C121.356 63.8294 121.539 64.2122 121.657 64.6543C121.776 65.0918 121.835 65.5703 121.835 66.0898V66.6572H116.312V65.625H120.57V65.5293C120.552 65.2012 120.484 64.8822 120.365 64.5723C120.251 64.2624 120.069 64.0072 119.818 63.8066C119.568 63.6061 119.226 63.5059 118.793 63.5059C118.506 63.5059 118.242 63.5674 118 63.6904C117.758 63.8089 117.551 63.9867 117.378 64.2236C117.205 64.4606 117.07 64.75 116.975 65.0918C116.879 65.4336 116.831 65.8278 116.831 66.2744V66.5615C116.831 66.9124 116.879 67.2428 116.975 67.5527C117.075 67.8581 117.218 68.127 117.405 68.3594C117.597 68.5918 117.827 68.7741 118.096 68.9062C118.369 69.0384 118.679 69.1045 119.025 69.1045C119.472 69.1045 119.85 69.0133 120.16 68.8311C120.47 68.6488 120.741 68.4049 120.974 68.0996L121.739 68.708C121.58 68.9495 121.377 69.1797 121.131 69.3984C120.885 69.6172 120.582 69.7949 120.222 69.9316C119.866 70.0684 119.445 70.1367 118.957 70.1367ZM130.523 65.3447H128.001L127.987 64.2852H130.277C130.656 64.2852 130.986 64.2214 131.269 64.0938C131.551 63.9661 131.77 63.7839 131.925 63.5469C132.084 63.3053 132.164 63.0182 132.164 62.6855C132.164 62.321 132.093 62.0247 131.952 61.7969C131.815 61.5645 131.604 61.3958 131.316 61.291C131.034 61.1816 130.674 61.127 130.236 61.127H128.295V70H126.976V60.0469H130.236C130.747 60.0469 131.202 60.0993 131.604 60.2041C132.005 60.3044 132.344 60.4639 132.622 60.6826C132.905 60.8968 133.119 61.1702 133.265 61.5029C133.41 61.8356 133.483 62.2344 133.483 62.6992C133.483 63.1094 133.379 63.4808 133.169 63.8135C132.959 64.1416 132.668 64.4105 132.294 64.6201C131.925 64.8298 131.492 64.9642 130.995 65.0234L130.523 65.3447ZM130.462 70H127.481L128.227 68.9268H130.462C130.881 68.9268 131.237 68.8538 131.528 68.708C131.825 68.5622 132.05 68.3571 132.205 68.0928C132.36 67.8239 132.438 67.5072 132.438 67.1426C132.438 66.7734 132.371 66.4544 132.239 66.1855C132.107 65.9167 131.9 65.7093 131.617 65.5635C131.335 65.4176 130.97 65.3447 130.523 65.3447H128.644L128.657 64.2852H131.228L131.508 64.668C131.986 64.709 132.392 64.8457 132.725 65.0781C133.057 65.306 133.31 65.5977 133.483 65.9531C133.661 66.3086 133.75 66.7005 133.75 67.1289C133.75 67.7487 133.613 68.2728 133.34 68.7012C133.071 69.125 132.69 69.4486 132.198 69.6719C131.706 69.8906 131.127 70 130.462 70ZM140.032 68.291V62.6035H141.304V70H140.094L140.032 68.291ZM140.271 66.7324L140.798 66.7188C140.798 67.2109 140.745 67.6667 140.641 68.0859C140.54 68.5007 140.376 68.8607 140.148 69.166C139.921 69.4714 139.622 69.7106 139.253 69.8838C138.884 70.0524 138.435 70.1367 137.906 70.1367C137.546 70.1367 137.216 70.0843 136.915 69.9795C136.619 69.8747 136.364 69.7129 136.149 69.4941C135.935 69.2754 135.769 68.9906 135.65 68.6396C135.536 68.2887 135.479 67.8672 135.479 67.375V62.6035H136.744V67.3887C136.744 67.7214 136.781 67.9971 136.854 68.2158C136.931 68.43 137.034 68.6009 137.161 68.7285C137.293 68.8516 137.439 68.9382 137.599 68.9883C137.763 69.0384 137.931 69.0635 138.104 69.0635C138.642 69.0635 139.068 68.9609 139.383 68.7559C139.697 68.5462 139.923 68.266 140.06 67.915C140.201 67.5596 140.271 67.1654 140.271 66.7324ZM144.605 62.6035V70H143.334V62.6035H144.605ZM143.238 60.6416C143.238 60.4365 143.3 60.2633 143.423 60.1221C143.55 59.9808 143.737 59.9102 143.983 59.9102C144.225 59.9102 144.41 59.9808 144.537 60.1221C144.669 60.2633 144.735 60.4365 144.735 60.6416C144.735 60.8376 144.669 61.0062 144.537 61.1475C144.41 61.2842 144.225 61.3525 143.983 61.3525C143.737 61.3525 143.55 61.2842 143.423 61.1475C143.3 61.0062 143.238 60.8376 143.238 60.6416ZM148.01 59.5V70H146.738V59.5H148.01ZM154.702 68.5645V59.5H155.974V70H154.812L154.702 68.5645ZM149.726 66.3838V66.2402C149.726 65.6751 149.794 65.1624 149.931 64.7021C150.072 64.2373 150.27 63.8385 150.525 63.5059C150.785 63.1732 151.093 62.918 151.448 62.7402C151.808 62.5579 152.209 62.4668 152.651 62.4668C153.116 62.4668 153.522 62.5488 153.868 62.7129C154.219 62.8724 154.515 63.1071 154.757 63.417C155.003 63.7223 155.197 64.0915 155.338 64.5244C155.479 64.9574 155.577 65.4473 155.632 65.9941V66.623C155.582 67.1654 155.484 67.653 155.338 68.0859C155.197 68.5189 155.003 68.888 154.757 69.1934C154.515 69.4987 154.219 69.7334 153.868 69.8975C153.517 70.057 153.107 70.1367 152.638 70.1367C152.205 70.1367 151.808 70.0433 151.448 69.8564C151.093 69.6696 150.785 69.4076 150.525 69.0703C150.27 68.7331 150.072 68.3366 149.931 67.8809C149.794 67.4206 149.726 66.9215 149.726 66.3838ZM150.997 66.2402V66.3838C150.997 66.7529 151.034 67.0993 151.106 67.4229C151.184 67.7464 151.302 68.0312 151.462 68.2773C151.621 68.5234 151.824 68.7171 152.07 68.8584C152.316 68.9951 152.61 69.0635 152.952 69.0635C153.371 69.0635 153.715 68.9746 153.984 68.7969C154.258 68.6191 154.477 68.3844 154.641 68.0928C154.805 67.8011 154.932 67.4844 155.023 67.1426V65.4951C154.969 65.2445 154.889 65.0029 154.784 64.7705C154.684 64.5335 154.552 64.3239 154.388 64.1416C154.228 63.9548 154.03 63.8066 153.793 63.6973C153.561 63.5879 153.285 63.5332 152.966 63.5332C152.619 63.5332 152.321 63.6061 152.07 63.752C151.824 63.8932 151.621 64.0892 151.462 64.3398C151.302 64.5859 151.184 64.873 151.106 65.2012C151.034 65.5247 150.997 65.8711 150.997 66.2402ZM161.012 70.1367C160.497 70.1367 160.03 70.0501 159.61 69.877C159.196 69.6992 158.838 69.4508 158.537 69.1318C158.241 68.8128 158.013 68.4346 157.854 67.9971C157.694 67.5596 157.614 67.0811 157.614 66.5615V66.2744C157.614 65.6729 157.703 65.1374 157.881 64.668C158.059 64.194 158.3 63.793 158.605 63.4648C158.911 63.1367 159.257 62.8883 159.645 62.7197C160.032 62.5511 160.433 62.4668 160.848 62.4668C161.376 62.4668 161.832 62.5579 162.215 62.7402C162.602 62.9225 162.919 63.1777 163.165 63.5059C163.411 63.8294 163.593 64.2122 163.712 64.6543C163.83 65.0918 163.89 65.5703 163.89 66.0898V66.6572H158.366V65.625H162.625V65.5293C162.607 65.2012 162.538 64.8822 162.42 64.5723C162.306 64.2624 162.124 64.0072 161.873 63.8066C161.622 63.6061 161.281 63.5059 160.848 63.5059C160.561 63.5059 160.296 63.5674 160.055 63.6904C159.813 63.8089 159.606 63.9867 159.433 64.2236C159.259 64.4606 159.125 64.75 159.029 65.0918C158.934 65.4336 158.886 65.8278 158.886 66.2744V66.5615C158.886 66.9124 158.934 67.2428 159.029 67.5527C159.13 67.8581 159.273 68.127 159.46 68.3594C159.651 68.5918 159.882 68.7741 160.15 68.9062C160.424 69.0384 160.734 69.1045 161.08 69.1045C161.527 69.1045 161.905 69.0133 162.215 68.8311C162.525 68.6488 162.796 68.4049 163.028 68.0996L163.794 68.708C163.634 68.9495 163.432 69.1797 163.186 69.3984C162.939 69.6172 162.636 69.7949 162.276 69.9316C161.921 70.0684 161.499 70.1367 161.012 70.1367ZM166.631 63.7656V70H165.366V62.6035H166.597L166.631 63.7656ZM168.941 62.5625L168.935 63.7383C168.83 63.7155 168.729 63.7018 168.634 63.6973C168.543 63.6882 168.438 63.6836 168.319 63.6836C168.028 63.6836 167.77 63.7292 167.547 63.8203C167.324 63.9115 167.134 64.0391 166.979 64.2031C166.825 64.3672 166.701 64.5632 166.61 64.791C166.524 65.0143 166.467 65.2604 166.439 65.5293L166.084 65.7344C166.084 65.2878 166.127 64.8685 166.214 64.4766C166.305 64.0846 166.444 63.7383 166.631 63.4375C166.818 63.1322 167.055 62.8952 167.342 62.7266C167.633 62.5534 167.98 62.4668 168.381 62.4668C168.472 62.4668 168.577 62.4782 168.695 62.501C168.814 62.5192 168.896 62.5397 168.941 62.5625Z" fill="black"></path>
    <path d="M26.62 7.04004H13.26V20.4H26.62V7.04004Z" fill="#131313"></path>
    <path d="M26.62 27.18C26.62 23.4907 23.6293 20.5 19.94 20.5C16.2507 20.5 13.26 23.4907 13.26 27.18C13.26 30.8693 16.2507 33.86 19.94 33.86C23.6293 33.86 26.62 30.8693 26.62 27.18Z" fill="#131313"></path>
    <path d="M26.51 33.21V19.85H39.87" fill="#131313"></path>
    <path d="M52.8 7H39.44V20.36H52.8V7Z" fill="#131313"></path>
    <path d="M67.47 56.33H54.11V69.69H67.47V56.33Z" fill="#131313"></path>
    <path d="M66.2 26.53C66.2 22.8407 63.2092 19.85 59.52 19.85C55.8307 19.85 52.84 22.8407 52.84 26.53C52.84 30.2192 55.8307 33.21 59.52 33.21C63.2092 33.21 66.2 30.2192 66.2 26.53Z" fill="#131313"></path>
    <path d="M13.36 34.3101H0V47.6701H13.36V34.3101Z" fill="#131313"></path>
    <path d="M26.62 41.21C26.62 37.5208 23.6293 34.53 19.94 34.53C16.2507 34.53 13.26 37.5208 13.26 41.21C13.26 44.8993 16.2507 47.89 19.94 47.89C23.6293 47.89 26.62 44.8993 26.62 41.21Z" fill="#131313"></path>
    <path d="M39.34 52.63C39.34 48.9407 36.3492 45.95 32.66 45.95C28.9707 45.95 25.98 48.9407 25.98 52.63C25.98 56.3192 28.9707 59.31 32.66 59.31C36.3492 59.31 39.34 56.3192 39.34 52.63Z" fill="#131313"></path>
    <path d="M26.51 46.27V32.91H39.87" fill="#131313"></path>
    <path d="M39.25 69.1H25.89V55.75" fill="#131313"></path>
    <path d="M39.44 46.28V32.92H52.8" fill="#131313"></path>
    <path d="M39.44 59.4V46.04H52.8" fill="#131313"></path>
    <path d="M66.2 32.92V46.28H52.84" fill="#131313"></path>
</svg>