<svg xmlns="http://www.w3.org/2000/svg" xmlns:xlink="http://www.w3.org/1999/xlink" id="Слой_1" x="0px" y="0px" viewBox="0 0 43.2 41.8" style="enable-background:new 0 0 43.2 41.8;" xml:space="preserve" width="264.57416267942585"  height="256" > <style type="text/css"> .st0{fill:#FFFFFF;} </style> <g> <path class="st0" d="M5.9,40c-0.7,0-1.3,0-1.8-0.1c-0.5-0.1-0.9-0.2-1.3-0.4C2.4,39.4,2.2,39.2,2,39s-0.4-0.4-0.5-0.6 c-0.1-0.2-0.2-0.4-0.2-0.7c0-0.2-0.1-0.4-0.1-0.6v-0.1h2.7c0,0.1,0,0.2,0.1,0.4c0,0.1,0.1,0.3,0.3,0.4c0.1,0.1,0.3,0.2,0.6,0.3 c0.3,0.1,0.6,0.1,1.1,0.1h0.1c0.5,0,0.8,0,1.1-0.1c0.3-0.1,0.5-0.1,0.6-0.2c0.1-0.1,0.2-0.2,0.3-0.3s0.1-0.2,0.1-0.4s0-0.2-0.1-0.4 c-0.1-0.1-0.1-0.2-0.3-0.3c-0.1-0.1-0.3-0.1-0.6-0.2s-0.5-0.1-0.9-0.1l-1.2,0c-0.7,0-1.4-0.1-1.8-0.3c-0.5-0.1-0.9-0.3-1.2-0.6 c-0.3-0.2-0.5-0.5-0.6-0.8c-0.1-0.3-0.2-0.6-0.2-1v-0.1c0-0.3,0.1-0.7,0.2-1c0.1-0.3,0.3-0.6,0.7-0.9c0.3-0.2,0.8-0.4,1.4-0.6 c0.6-0.1,1.3-0.2,2.3-0.2h0.4c1,0,1.8,0.1,2.4,0.2c0.6,0.2,1,0.4,1.4,0.6c0.3,0.3,0.5,0.5,0.6,0.8c0.1,0.3,0.1,0.6,0.1,0.9v0.1H8 c0-0.1,0-0.2-0.1-0.3c0-0.1-0.1-0.2-0.3-0.3c-0.1-0.1-0.3-0.2-0.6-0.3c-0.3-0.1-0.6-0.1-1-0.1H5.8c-0.4,0-0.7,0-1,0.1 s-0.4,0.1-0.6,0.2S4,33,4,33.1c-0.1,0.1-0.1,0.2-0.1,0.3c0,0.1,0,0.2,0.1,0.3c0,0.1,0.1,0.2,0.3,0.3c0.1,0.1,0.3,0.1,0.5,0.2 c0.2,0,0.5,0.1,0.9,0.1l1.2,0c0.8,0,1.4,0.1,2,0.3c0.5,0.1,0.9,0.3,1.2,0.6c0.3,0.2,0.5,0.5,0.6,0.8c0.1,0.3,0.2,0.6,0.2,1v0.1 c0,0.3-0.1,0.7-0.2,1c-0.1,0.4-0.3,0.7-0.6,1c-0.3,0.3-0.8,0.5-1.4,0.7S7.2,40,6.2,40H5.9z"/> <path class="st0" d="M16.2,39.9L12.1,31h2.9l2.9,6.8l2.9-6.8h2.7l-4,8.9H16.2z"/> <path class="st0" d="M30.4,30.8c1,0,1.9,0.1,2.6,0.4c0.7,0.3,1.2,0.6,1.6,1.1c0.4,0.4,0.7,0.9,0.9,1.4c0.2,0.5,0.3,1,0.3,1.5v0.4 c0,0.5-0.1,1-0.3,1.5s-0.5,1-0.9,1.4c-0.4,0.4-1,0.8-1.6,1.1c-0.7,0.3-1.6,0.4-2.6,0.4h-0.5c-0.7,0-1.3-0.1-1.8-0.2 c-0.5-0.1-1-0.3-1.4-0.5s-0.7-0.5-1-0.8c-0.3-0.3-0.5-0.6-0.7-0.9s-0.3-0.7-0.4-1c-0.1-0.3-0.1-0.7-0.1-1v-0.4c0-0.3,0-0.7,0.1-1 c0.1-0.3,0.2-0.7,0.4-1s0.4-0.6,0.7-0.9c0.3-0.3,0.6-0.5,1-0.8c0.4-0.2,0.9-0.4,1.4-0.5c0.5-0.1,1.2-0.2,1.8-0.2H30.4z M33.2,35.3 c0-0.3,0-0.6-0.1-0.8s-0.2-0.6-0.5-0.8c-0.2-0.2-0.5-0.4-0.9-0.6s-0.9-0.2-1.5-0.2c-0.6,0-1.1,0.1-1.5,0.2s-0.7,0.3-0.9,0.6 c-0.2,0.2-0.4,0.5-0.5,0.8s-0.1,0.6-0.1,0.8v0.2c0,0.3,0,0.6,0.1,0.8c0.1,0.3,0.2,0.6,0.5,0.8s0.5,0.4,0.9,0.6s0.9,0.2,1.5,0.2 c0.6,0,1.1-0.1,1.5-0.2c0.4-0.2,0.7-0.4,0.9-0.6c0.2-0.2,0.4-0.5,0.5-0.8c0.1-0.3,0.1-0.6,0.1-0.8V35.3z"/> </g> <path class="st0" d="M40.5,36.9H38V0h2.5V36.9z"/> <path class="st0" d="M40.5,40H38v-2h2.5V40z"/> </svg>